# xmcd
#
# Track frame offsets:
#	150
#	16710
#	32507
#	48012
#	69372
#	85790
#	104448
#	112457
#	127504
#	147187
#	164385
#	169795
#	190276
#
# Disc length: 2870 seconds
#
# Revision: 1
# Processed by: cddbd v1.5.2PL0 Copyright (c) Steve Scherf et al.
# Submitted via: audiograbber 1.83.01
#
DISCID=9f0b340d
DTITLE=Hey Ocean - Is
DYEAR=2012
DGENRE=Indie
TTITLE0=If I Were A Ship
TTITLE1=Make A New Dance Up
TTITLE2=Big Blue Wave
TTITLE3=Islands
TTITLE4=Jolene
TTITLE5=New Love
TTITLE6=Bicycle
TTITLE7=Steady
TTITLE8=Change
TTITLE9=I Am A Heart
TTITLE10=(For)Give
TTITLE11=Give
TTITLE12=Last Mistake
EXTD=
EXTT0=
EXTT1=
EXTT2=
EXTT3=
EXTT4=
EXTT5=
EXTT6=
EXTT7=
EXTT8=
EXTT9=
EXTT10=
EXTT11=
EXTT12=
PLAYORDER=
